# xmcd CD database file
#
# Track frame offsets:
#	150
#	20060
#	41447
#	57101
#	84535
#	107282
#	122118
#	139265
#	159350
#	182727
#	199493
#	212725
#	238897
#	258939
#	280480
#
# Disc length: 4057 seconds
#
# Revision: 0
# Processed by: cddbd v1.5.2PL0 Copyright (c) Steve Scherf et al.
# Submitted via: CDex 1.51
#
DISCID=d90fd70f
DTITLE=Various Artist - Blue Stream
DYEAR=1900
DGENRE=Blues
TTITLE0=Luther Allison  Cherry red wine
TTITLE1=Larry Gardner  Where blues turn back
TTITLE2=Ana Popovic  Comfort to the soul
TTITLE3=Bernard Allison  Good time woman
TTITLE4=Amar Sundy  Come on home
TTITLE5=Connie Lush  One monkey
TTITLE6=Hans Olson  No one can forgive me
TTITLE7=Aynsley Lister  Say goodbye
TTITLE8=Walter Trout  Love so deep
TTITLE9=Candye Hane  Something's got a hold on me
TTITLE10=Canned Heat  Same old games
TTITLE11=Awek  Life gives me to believe
TTITLE12=Franck Ash  Be my lighthouse
TTITLE13=Egidio Ingala  I feel something new
TTITLE14=Marvellous Pig Noise  Louise et Anne
EXTD=
EXTT0=
EXTT1=
EXTT2=
EXTT3=
EXTT4=
EXTT5=
EXTT6=
EXTT7=
EXTT8=
EXTT9=
EXTT10=
EXTT11=
EXTT12=
EXTT13=
EXTT14=
PLAYORDER=
